<svg width="23" height="26" viewBox="0 0 23 26" fill="none" xmlns="http://www.w3.org/2000/svg">
<path d="M11.0066 2.41501C8.06829 2.41501 7.72338 2.43001 6.56203 2.49C5.48801 2.545 4.90734 2.74997 4.51877 2.92496C4.00359 3.15493 3.63685 3.4249 3.25265 3.86485C2.86844 4.3048 2.62831 4.72476 2.43185 5.31469C2.28341 5.75964 2.10003 6.42457 2.05201 7.65443C1.99962 8.98428 1.98652 9.37924 1.98652 12.7439C1.98652 16.1085 1.99962 16.5035 2.05201 17.8333C2.10003 19.0632 2.27904 19.7281 2.43185 20.173C2.63268 20.763 2.86844 21.1829 3.25265 21.6229C3.63685 22.0628 4.00359 22.3378 4.51877 22.5628C4.90734 22.7328 5.48801 22.9427 6.56203 22.9977C7.72338 23.0577 8.06829 23.0727 11.0066 23.0727C13.9449 23.0727 14.2898 23.0577 15.4511 22.9977C16.5251 22.9427 17.1058 22.7378 17.4944 22.5628C18.0096 22.3328 18.3763 22.0628 18.7605 21.6229C19.1447 21.1829 19.3848 20.763 19.5813 20.173C19.7297 19.7281 19.9131 19.0632 19.9611 17.8333C20.0135 16.5035 20.0266 16.1085 20.0266 12.7439C20.0266 9.37924 20.0135 8.98428 19.9611 7.65443C19.9131 6.42457 19.7341 5.75964 19.5813 5.31469C19.3805 4.72476 19.1447 4.3048 18.7605 3.86485C18.3763 3.4249 18.0096 3.14993 17.4944 2.92496C17.1058 2.75497 16.5251 2.545 15.4511 2.49C14.2898 2.42501 13.9405 2.41501 11.0066 2.41501ZM11.0066 0.145264C13.9929 0.145264 14.3684 0.160262 15.5428 0.220255C16.7129 0.280249 17.5118 0.495225 18.2104 0.805191C18.9351 1.12516 19.5464 1.56011 20.1576 2.26003C20.7688 2.95995 21.1443 3.66487 21.4281 4.48978C21.6988 5.28969 21.8865 6.20459 21.9389 7.54944C21.9913 8.8893 22.0044 9.31925 22.0044 12.7389C22.0044 16.1585 21.9913 16.5884 21.9389 17.9333C21.8865 19.2731 21.6988 20.188 21.4281 20.993C21.1487 21.8229 20.7688 22.5228 20.1576 23.2227C19.5464 23.9226 18.9308 24.3526 18.2104 24.6775C17.5118 24.9875 16.7129 25.2025 15.5384 25.2625C14.364 25.3225 13.9929 25.3375 11.0022 25.3375C8.01153 25.3375 7.64042 25.3225 6.46598 25.2625C5.29591 25.2025 4.49694 24.9875 3.79402 24.6775C3.06927 24.3576 2.45804 23.9226 1.84681 23.2227C1.23558 22.5228 0.860106 21.8179 0.576319 20.993C0.30563 20.193 0.117895 19.2781 0.0655022 17.9333C0.0131111 16.5884 1.33514e-05 16.1635 1.33514e-05 12.7389C1.33514e-05 9.31425 0.0131111 8.88929 0.0655022 7.54444C0.117895 6.20459 0.30563 5.28969 0.576319 4.48478C0.85574 3.65488 1.23558 2.95495 1.84681 2.25503C2.45804 1.55511 3.07364 1.12516 3.79402 0.800191C4.49257 0.490225 5.29154 0.275249 6.46598 0.215256C7.64479 0.160262 8.02026 0.145264 11.0066 0.145264Z" fill="white"/>
<path d="M11.0066 6.27441C14.1239 6.27441 16.6561 9.16909 16.6561 12.7437C16.6561 16.3183 14.1282 19.213 11.0066 19.213C7.88494 19.213 5.35706 16.3183 5.35706 12.7437C5.35706 9.16909 7.88494 6.27441 11.0066 6.27441ZM11.0066 16.9382C13.0324 16.9382 14.674 15.0584 14.674 12.7387C14.674 10.419 13.0324 8.53916 11.0066 8.53916C8.9808 8.53916 7.3392 10.419 7.3392 12.7387C7.3392 15.0584 8.9808 16.9382 11.0066 16.9382Z" fill="white"/>
<path d="M5.13437 7.52512C4.40617 7.52512 3.81585 6.84902 3.81585 6.015C3.81585 5.18099 4.40617 4.50488 5.13437 4.50488C5.86256 4.50488 6.45288 5.18099 6.45288 6.015C6.45288 6.84902 5.86256 7.52512 5.13437 7.52512Z" fill="white"/>
</svg>
