<svg width="28" height="28" viewBox="0 0 28 28" fill="none" xmlns="http://www.w3.org/2000/svg">
<path fill-rule="evenodd" clip-rule="evenodd" d="M2.33331 14C2.33331 13.3557 2.85565 12.8333 3.49997 12.8333H24.5C25.1443 12.8333 25.6667 13.3557 25.6667 14C25.6667 14.6444 25.1443 15.1667 24.5 15.1667H3.49997C2.85565 15.1667 2.33331 14.6444 2.33331 14Z" fill="white"/>
<path fill-rule="evenodd" clip-rule="evenodd" d="M16.6751 6.17505C17.1306 5.71944 17.8694 5.71944 18.325 6.17505L25.325 13.1751C25.7805 13.6306 25.7805 14.3694 25.325 14.825L18.325 21.825C17.8694 22.2805 17.1306 22.2805 16.6751 21.825C16.2195 21.3694 16.2195 20.6306 16.6751 20.1751L22.8501 14L16.6751 7.82497C16.2195 7.36935 16.2195 6.63067 16.6751 6.17505Z" fill="white"/>
</svg>
