<svg width="22" height="25" viewBox="0 0 22 25" fill="none" xmlns="http://www.w3.org/2000/svg">
<path d="M0.916667 22.1883H21.0833C21.351 22.1883 21.5707 22.2821 21.7424 22.4699C21.9141 22.6576 22 22.8977 22 23.1903C22 23.4829 21.9141 23.7231 21.7424 23.9108C21.5707 24.0985 21.351 24.1924 21.0833 24.1924H0.916667C0.649 24.1924 0.429306 24.0985 0.257583 23.9108C0.0858612 23.7231 0 23.4829 0 23.1903C0 22.8977 0.0858612 22.6576 0.257583 22.4699C0.429306 22.2821 0.649 22.1883 0.916667 22.1883ZM11.9167 4.08932V18.1811H10.0833V3.87087L3.12217 11.4804L1.83333 10.0715L10.9138 0.145264L19.9943 10.0715L18.6762 11.4804L11.9167 4.08932Z" fill="white" fill-opacity="0.96"/>
</svg>
