<svg width="22" height="26" viewBox="0 0 22 26" fill="none" xmlns="http://www.w3.org/2000/svg">
<path d="M0 25.0861L1.54837 18.6477C0.591101 16.7579 0.0889266 14.6177 0.0941576 12.4298C0.0941576 5.57403 4.99035 0 11.0007 0C13.9196 0 16.6607 1.29365 18.7164 3.6425C20.7774 5.99134 21.9126 9.11518 21.9073 12.4358C21.9073 19.2915 17.0111 24.8656 10.9955 24.8656H10.9903C9.16467 24.8656 7.37045 24.3409 5.775 23.3513L0 25.0861ZM6.05224 21.1038L6.38179 21.3304C7.77323 22.2723 9.36868 22.7671 10.9955 22.7731H11.0007C15.9963 22.7731 20.066 18.1409 20.066 12.4417C20.066 9.68153 19.1245 7.08826 17.4139 5.13288C15.7034 3.1775 13.4227 2.10442 11.0007 2.10442C6.00516 2.09846 1.93546 6.73057 1.93546 12.4298C1.93546 14.3792 2.41148 16.2809 3.32167 17.9263L3.53614 18.3198L2.62072 22.1292L6.05224 21.1038Z" fill="url(#paint0_linear_14_273)"/>
<path fill-rule="evenodd" clip-rule="evenodd" d="M8.27533 7.23146C8.07132 6.71281 7.85685 6.70089 7.6633 6.69493C7.50637 6.68897 7.32329 6.68896 7.1402 6.68896C6.95712 6.68896 6.66418 6.76646 6.4131 7.07646C6.16201 7.38646 5.46106 8.13762 5.46106 9.66973C5.46106 11.1959 6.43925 12.6743 6.57526 12.883C6.71126 13.0917 8.46364 16.3288 11.2308 17.5747C13.5325 18.612 14.0032 18.4034 14.5002 18.3497C14.9971 18.2961 16.1113 17.5986 16.3415 16.8713C16.5664 16.144 16.5664 15.524 16.4984 15.3928C16.4304 15.2616 16.2473 15.1841 15.9753 15.0291C15.7033 14.8741 14.3642 14.123 14.1131 14.0157C13.862 13.9143 13.6789 13.8607 13.5011 14.1707C13.318 14.4807 12.7949 15.1782 12.638 15.3868C12.481 15.5955 12.3189 15.6193 12.0469 15.4643C11.7748 15.3093 10.896 14.9815 9.85508 13.9203C9.04428 13.0976 8.49503 12.0782 8.3381 11.7682C8.18117 11.4582 8.3224 11.2913 8.45841 11.1363C8.57872 10.9992 8.73042 10.7726 8.86643 10.5938C9.00243 10.4149 9.04951 10.2838 9.13844 10.0751C9.22736 9.86646 9.18552 9.68762 9.11751 9.53262C9.04951 9.38358 8.51595 7.8455 8.27533 7.23146Z" fill="white"/>
<defs>
<linearGradient id="paint0_linear_14_273" x1="10.9558" y1="25.0838" x2="10.9558" y2="0" gradientUnits="userSpaceOnUse">
<stop stop-color="#F9F9F9"/>
<stop offset="1" stop-color="white"/>
</linearGradient>
</defs>
</svg>
